<svg width="70" height="70" viewBox="0 0 70 70" fill="none" xmlns="http://www.w3.org/2000/svg">
<g filter="url(#filter0_f_60_658)">
<rect x="11.2075" y="11.7798" width="0.809088" height="69.4481" transform="rotate(-45 11.2075 11.7798)" fill="url(#paint0_linear_60_658)" fill-opacity="0.4"/>
</g>
<g filter="url(#filter1_f_60_658)">
<rect x="59.3574" y="10.25" width="0.809088" height="69.4481" transform="rotate(45 59.3574 10.25)" fill="url(#paint1_linear_60_658)" fill-opacity="0.4"/>
</g>
<g filter="url(#filter2_f_60_658)">
<path d="M35 3.5L36.9322 31.9287C36.9737 32.5398 37.4602 33.0263 38.0713 33.0678L66.5 35L38.0713 36.9322C37.4602 36.9737 36.9737 37.4602 36.9322 38.0713L35 66.5L33.0678 38.0713C33.0263 37.4602 32.5398 36.9737 31.9287 36.9322L3.5 35L31.9287 33.0678C32.5398 33.0263 33.0263 32.5398 33.0678 31.9287L35 3.5Z" fill="url(#paint2_radial_60_658)"/>
</g>
<defs>
<filter id="filter0_f_60_658" x="9.70752" y="9.7077" width="52.6792" height="52.6793" filterUnits="userSpaceOnUse" color-interpolation-filters="sRGB">
<feFlood flood-opacity="0" result="BackgroundImageFix"/>
<feBlend mode="normal" in="SourceGraphic" in2="BackgroundImageFix" result="shape"/>
<feGaussianBlur stdDeviation="0.75" result="effect1_foregroundBlur_60_658"/>
</filter>
<filter id="filter1_f_60_658" x="8.75" y="8.75" width="52.6797" height="52.6793" filterUnits="userSpaceOnUse" color-interpolation-filters="sRGB">
<feFlood flood-opacity="0" result="BackgroundImageFix"/>
<feBlend mode="normal" in="SourceGraphic" in2="BackgroundImageFix" result="shape"/>
<feGaussianBlur stdDeviation="0.75" result="effect1_foregroundBlur_60_658"/>
</filter>
<filter id="filter2_f_60_658" x="0.875" y="0.875" width="68.25" height="68.25" filterUnits="userSpaceOnUse" color-interpolation-filters="sRGB">
<feFlood flood-opacity="0" result="BackgroundImageFix"/>
<feBlend mode="normal" in="SourceGraphic" in2="BackgroundImageFix" result="shape"/>
<feGaussianBlur stdDeviation="1.3125" result="effect1_foregroundBlur_60_658"/>
</filter>
<linearGradient id="paint0_linear_60_658" x1="11.6121" y1="11.7798" x2="11.6121" y2="81.2279" gradientUnits="userSpaceOnUse">
<stop stop-color="white" stop-opacity="0"/>
<stop offset="0.487984" stop-color="white"/>
<stop offset="1" stop-color="white" stop-opacity="0"/>
</linearGradient>
<linearGradient id="paint1_linear_60_658" x1="59.762" y1="10.25" x2="59.762" y2="79.6981" gradientUnits="userSpaceOnUse">
<stop stop-color="white" stop-opacity="0"/>
<stop offset="0.487984" stop-color="white"/>
<stop offset="1" stop-color="white" stop-opacity="0"/>
</linearGradient>
<radialGradient id="paint2_radial_60_658" cx="0" cy="0" r="1" gradientUnits="userSpaceOnUse" gradientTransform="translate(35 35) rotate(90) scale(31.5)">
<stop stop-color="#EFEDF3"/>
<stop offset="0.771647" stop-color="#EFEDF3" stop-opacity="0"/>
</radialGradient>
</defs>
</svg>
